<svg width="18" height="25" viewBox="0 0 18 25" fill="none" xmlns="http://www.w3.org/2000/svg">
<path d="M2.53018 24.7761H8.16405V16.1402H6.13991V13.2932H8.16405V9.73445C8.16405 7.77213 9.29908 6.1757 10.6942 6.1757H13.2244V9.0227H11.2003C10.6422 9.0227 10.1882 9.66123 10.1882 10.4462V13.2932H13.1331L12.7957 16.1402H10.1882V24.7761H14.7425C16.1377 24.7761 17.2727 23.1797 17.2727 21.2174V4.04044C17.2727 2.07812 16.1377 0.481689 14.7425 0.481689H2.53018C1.13502 0.481689 0 2.07812 0 4.04044V21.2174C0 23.1797 1.13502 24.7761 2.53018 24.7761ZM1.01207 4.04044C1.01207 2.86309 1.69311 1.90519 2.53018 1.90519H14.7425C15.5796 1.90519 16.2606 2.86309 16.2606 4.04044V21.2174C16.2606 22.3947 15.5796 23.3526 14.7425 23.3526H11.2003V17.5637H13.6531L14.3278 11.8697H11.2003V10.4462H14.2365V4.75219H10.6942C8.74099 4.75219 7.15198 6.98717 7.15198 9.73445V11.8697H5.12783V17.5637H7.15198V23.3526H2.53018C1.69311 23.3526 1.01207 22.3947 1.01207 21.2174V4.04044Z" fill="white"/>
</svg>
