<svg width="18" height="25" viewBox="0 0 18 25" fill="none" xmlns="http://www.w3.org/2000/svg">
<path d="M2.53018 24.7761H14.7425C16.1377 24.7761 17.2727 23.1797 17.2727 21.2174V4.04044C17.2727 2.07812 16.1377 0.481689 14.7425 0.481689H2.53018C1.13502 0.481689 0 2.07812 0 4.04044V21.2174C0 23.1797 1.13502 24.7761 2.53018 24.7761ZM1.01207 4.04044C1.01207 2.86309 1.69311 1.90519 2.53018 1.90519H14.7425C15.5796 1.90519 16.2606 2.86309 16.2606 4.04044V21.2174C16.2606 22.3947 15.5796 23.3526 14.7425 23.3526H2.53018C1.69311 23.3526 1.01207 22.3947 1.01207 21.2174V4.04044Z" fill="white"/>
<path d="M8.63635 19.0347C11.1476 19.0347 13.1907 16.161 13.1907 12.6289C13.1907 9.09684 11.1476 6.22314 8.63635 6.22314C6.12515 6.22314 4.08203 9.09684 4.08203 12.6289C4.08203 16.161 6.12515 19.0347 8.63635 19.0347ZM8.63635 7.64665C10.5896 7.64665 12.1786 9.88162 12.1786 12.6289C12.1786 15.3762 10.5896 17.6112 8.63635 17.6112C6.68311 17.6112 5.0941 15.3762 5.0941 12.6289C5.0941 9.88162 6.68311 7.64665 8.63635 7.64665Z" fill="white"/>
<path d="M13.4092 7.30117C14.2363 7.30117 14.9092 6.3547 14.9092 5.19139C14.9092 4.02808 14.2363 3.0816 13.4092 3.0816C12.5821 3.0816 11.9092 4.02808 11.9092 5.19139C11.9092 6.3547 12.5821 7.30117 13.4092 7.30117ZM13.4092 4.48813C13.6848 4.48813 13.9092 4.80368 13.9092 5.19139C13.9092 5.5791 13.6848 5.89465 13.4092 5.89465C13.1335 5.89465 12.9092 5.5791 12.9092 5.19139C12.9092 4.80368 13.1335 4.48813 13.4092 4.48813Z" fill="white"/>
</svg>
