<svg width="18" height="21" viewBox="0 0 18 21" fill="none" xmlns="http://www.w3.org/2000/svg">
<path d="M17.2727 3.58539C16.1862 3.65582 16.2099 3.65007 16.0871 3.66453L16.7306 1.0798C16.7306 1.0798 14.722 2.11907 14.2128 2.30498C12.8755 0.614385 10.8877 0.539688 9.46657 1.7682C8.30282 2.77447 7.67818 4.50251 7.88652 6.52228C5.62162 6.08022 3.7133 4.57016 2.20666 2.02454L1.73014 1.21956L1.37407 2.13927C0.924043 3.30143 0.774605 4.63021 0.953167 5.88078C1.02644 6.39383 1.15097 6.88316 1.32347 7.34135L0.914687 7.11856L0.866192 8.07924C0.817038 9.05511 1.04805 10.1943 1.48424 11.1262C1.60706 11.3887 1.7652 11.6769 1.96563 11.9612L1.75439 11.9156L2.01215 13.0164C2.35096 14.4627 3.05467 15.5817 3.9679 16.2038C3.05585 16.7481 2.31907 17.0955 1.10801 17.6558L0 18.1681L1.02341 18.9551C1.41361 19.2552 2.79242 20.2574 4.15477 20.558C7.18308 21.226 10.5926 20.682 12.888 17.7744C14.8213 15.3254 15.4557 11.8417 15.3239 8.2164C15.304 7.66757 15.4109 7.14377 15.6249 6.74174C16.0536 5.93676 17.2701 3.59076 17.2727 3.58539ZM14.8157 5.88912C14.4602 6.55657 14.2822 7.40901 14.3141 8.28905C14.4471 11.9459 13.7397 14.7817 12.2114 16.7175C10.4262 18.979 7.54666 19.8667 4.31146 19.1529C3.72556 19.0237 3.12003 18.7344 2.61887 18.4454C3.63424 17.954 4.41833 17.516 5.68461 16.6731L7.45231 15.4963L5.50064 15.3206C4.56579 15.2364 3.78737 14.5992 3.30887 13.5645C3.56294 13.5438 3.80792 13.4859 4.05185 13.3903L5.91324 12.6611L4.0363 12.0146C3.12425 11.7005 2.60437 10.9329 2.32882 10.3442C2.14789 9.9574 2.02968 9.56112 1.95878 9.1958C2.14696 9.26678 2.36638 9.31739 2.72021 9.36669L4.45747 9.60839L3.08102 8.09814C2.08924 7.01013 1.6918 5.37551 1.98316 3.8041C5.07842 8.31964 8.71265 7.98026 9.07847 8.09963C8.99796 6.99956 8.99585 6.99697 8.97476 6.89224C8.50628 4.56293 9.53299 3.3802 9.99606 2.97984C10.9633 2.14372 12.4987 2.01768 13.5622 3.39522C13.7919 3.69252 14.1025 3.80948 14.3932 3.7079C14.6541 3.61671 14.8682 3.52014 15.0779 3.41505L14.6414 5.1681L15.1986 5.16866C15.0935 5.36699 14.9673 5.60442 14.8157 5.88912Z" fill="white"/>
</svg>
